<svg viewBox="0 0 200 200" xmlns="http://www.w3.org/2000/svg">
  <defs>
    <style>
      .pixel { shape-rendering: crispEdges; }
    </style>
    
    <!-- Glow effect -->
    <filter id="pixelGlow">
      <feGaussianBlur stdDeviation="3" result="coloredBlur"/>
      <feMerge>
        <feMergeNode in="coloredBlur"/>
        <feMergeNode in="SourceGraphic"/>
      </feMerge>
    </filter>
    
    <!-- Strong glow for important elements -->
    <filter id="strongGlow">
      <feGaussianBlur stdDeviation="4" result="coloredBlur"/>
      <feMerge>
        <feMergeNode in="coloredBlur"/>
        <feMergeNode in="coloredBlur"/>
        <feMergeNode in="SourceGraphic"/>
      </feMerge>
    </filter>
  </defs>
  
  <!-- Background -->
  <rect width="200" height="200" fill="#0A001A" rx="20" class="pixel"/>
  
  <!-- Inner frame -->
  <rect x="10" y="10" width="180" height="180" fill="#1A0033" rx="16" class="pixel"/>
  <rect x="15" y="15" width="170" height="170" fill="none" stroke="#00FFFF" stroke-width="2" rx="14" class="pixel" opacity="0.6" filter="url(#pixelGlow)"/>
  
  <!-- Main pixelated prism (larger and centered) -->
  <g transform="translate(100, 105)" class="pixel" filter="url(#strongGlow)">
    <!-- Top highlight (larger) -->
    <rect x="-10" y="-60" width="20" height="10" fill="#FFFFFF"/>
    <rect x="-5" y="-55" width="10" height="5" fill="#FFFFFF" opacity="0.9"/>
    
    <!-- Main prism body (scaled up) -->
    <!-- Row 1 -->
    <rect x="-20" y="-48" width="10" height="10" fill="#FF1493"/>
    <rect x="-10" y="-48" width="20" height="10" fill="#FF1493"/>
    <rect x="10" y="-48" width="10" height="10" fill="#FF1493"/>
    
    <!-- Row 2 -->
    <rect x="-30" y="-38" width="10" height="10" fill="#FF69B4"/>
    <rect x="-20" y="-38" width="40" height="10" fill="#FF69B4"/>
    <rect x="20" y="-38" width="10" height="10" fill="#FF69B4"/>
    
    <!-- Row 3 -->
    <rect x="-40" y="-28" width="80" height="10" fill="#00FFFF"/>
    
    <!-- Row 4 -->
    <rect x="-40" y="-18" width="80" height="10" fill="#00CED1"/>
    
    <!-- Row 5 -->
    <rect x="-40" y="-8" width="80" height="10" fill="#40E0D0"/>
    
    <!-- Row 6 -->
    <rect x="-30" y="2" width="60" height="10" fill="#7FFF00"/>
    
    <!-- Row 7 -->
    <rect x="-20" y="12" width="40" height="10" fill="#ADFF2F"/>
    
    <!-- Row 8 -->
    <rect x="-10" y="22" width="20" height="10" fill="#32CD32"/>
    
    <!-- Light beam pixels (larger) -->
    <rect x="-70" y="-18" width="24" height="6" fill="#FFFF00" opacity="0.8"/>
    <rect x="-66" y="-12" width="16" height="6" fill="#FFFF00" opacity="0.6"/>
    
    <!-- Rainbow burst pixels (larger) -->
    <rect x="46" y="-28" width="20" height="6" fill="#FF0000" opacity="0.9"/>
    <rect x="50" y="-22" width="16" height="6" fill="#FF0000" opacity="0.7"/>
    
    <rect x="46" y="-18" width="24" height="6" fill="#FFA500" opacity="0.9"/>
    <rect x="54" y="-12" width="16" height="6" fill="#FFA500" opacity="0.7"/>
    
    <rect x="46" y="-8" width="28" height="6" fill="#FFFF00" opacity="0.9"/>
    
    <rect x="46" y="2" width="24" height="6" fill="#00FF00" opacity="0.9"/>
    <rect x="54" y="8" width="16" height="6" fill="#00FF00" opacity="0.7"/>
    
    <rect x="46" y="12" width="20" height="6" fill="#0000FF" opacity="0.9"/>
    <rect x="50" y="18" width="16" height="6" fill="#0000FF" opacity="0.7"/>
  </g>
  
  <!-- Corner decorations -->
  <g class="pixel">
    <!-- Top-left -->
    <rect x="20" y="20" width="4" height="4" fill="#FF00FF" opacity="0.8"/>
    <rect x="24" y="20" width="4" height="4" fill="#FF00FF" opacity="0.6"/>
    <rect x="20" y="24" width="4" height="4" fill="#FF00FF" opacity="0.6"/>
    
    <!-- Top-right -->
    <rect x="176" y="20" width="4" height="4" fill="#00FFFF" opacity="0.8"/>
    <rect x="172" y="20" width="4" height="4" fill="#00FFFF" opacity="0.6"/>
    <rect x="176" y="24" width="4" height="4" fill="#00FFFF" opacity="0.6"/>
    
    <!-- Bottom-left -->
    <rect x="20" y="176" width="4" height="4" fill="#00FFFF" opacity="0.8"/>
    <rect x="24" y="176" width="4" height="4" fill="#00FFFF" opacity="0.6"/>
    <rect x="20" y="172" width="4" height="4" fill="#00FFFF" opacity="0.6"/>
    
    <!-- Bottom-right -->
    <rect x="176" y="176" width="4" height="4" fill="#FF00FF" opacity="0.8"/>
    <rect x="172" y="176" width="4" height="4" fill="#FF00FF" opacity="0.6"/>
    <rect x="176" y="172" width="4" height="4" fill="#FF00FF" opacity="0.6"/>
  </g>
  
  <!-- Floating pixels animation -->
  <g class="pixel">
    <rect x="30" y="40" width="2" height="2" fill="#FFFF00" opacity="0.5">
      <animate attributeName="opacity" values="0.5;1;0.5" dur="2s" repeatCount="indefinite"/>
    </rect>
    <rect x="170" y="50" width="2" height="2" fill="#00FFFF" opacity="0.5">
      <animate attributeName="opacity" values="0.5;1;0.5" dur="2.5s" begin="0.5s" repeatCount="indefinite"/>
    </rect>
    <rect x="40" y="160" width="2" height="2" fill="#FF00FF" opacity="0.5">
      <animate attributeName="opacity" values="0.5;1;0.5" dur="2s" begin="1s" repeatCount="indefinite"/>
    </rect>
    <rect x="160" y="150" width="2" height="2" fill="#00FF00" opacity="0.5">
      <animate attributeName="opacity" values="0.5;1;0.5" dur="2.5s" begin="1.5s" repeatCount="indefinite"/>
    </rect>
  </g>
  

</svg>